<?xml version="1.0" encoding="UTF-8" standalone="no"?><!DOCTYPE svg PUBLIC "-//W3C//DTD SVG 1.1//EN" "http://www.w3.org/Graphics/SVG/1.1/DTD/svg11.dtd"><svg width="100%" height="100%" viewBox="0 0 75 64" version="1.1" xmlns="http://www.w3.org/2000/svg" xmlns:xlink="http://www.w3.org/1999/xlink" xml:space="preserve" xmlns:serif="http://www.serif.com/" style="fill-rule:evenodd;clip-rule:evenodd;stroke-linecap:round;"><g><g><path d="M26.788,41.167l-0,4.166" style="fill:none;fill-rule:nonzero;stroke:#ffa500;stroke-width:2.73px;"/><g><path d="M18.238,37.506l-2.85,2.946" style="fill:none;fill-rule:nonzero;stroke:#ffa500;stroke-width:2.78px;"/></g><g><path d="M14.697,28.667l-4.03,-0" style="fill:none;fill-rule:nonzero;stroke:#ffa500;stroke-width:2.73px;"/></g><g><path d="M18.238,19.828l-2.85,-2.946" style="fill:none;fill-rule:nonzero;stroke:#ffa500;stroke-width:2.69px;"/></g><g><path d="M26.788,16.167l-0,-4.167" style="fill:none;fill-rule:nonzero;stroke:#ffa500;stroke-width:2.73px;"/></g><g><path d="M35.337,19.828l2.85,-2.946" style="fill:none;fill-rule:nonzero;stroke:#ffa500;stroke-width:2.78px;"/></g><g><path d="M38.878,28.667l4.03,-0" style="fill:none;fill-rule:nonzero;stroke:#ffa500;stroke-width:2.73px;"/></g><g><path d="M35.337,37.506l2.85,2.946" style="fill:none;fill-rule:nonzero;stroke:#ffa500;stroke-width:2.69px;"/></g><ellipse cx="26.788" cy="28.667" rx="6.717" ry="6.944" style="fill:#ffa500;stroke:#ffa500;stroke-width:2.73px;stroke-linecap:butt;"/></g><g><path d="M64,40.333c0,-6.389 -4.971,-11.389 -11.016,-11.389c-1.343,0 -2.552,0.278 -3.761,0.695c-0.404,-4.722 -4.165,-8.611 -8.867,-8.611c-4.971,-0 -9.001,4.166 -9.001,9.305c0,1.111 0.269,2.223 0.538,3.195c-0.403,-0.139 -0.941,-0.139 -1.344,-0.139c-4.97,-0 -9.001,4.167 -9.001,9.305c0,5 3.896,9.167 8.732,9.306l23.107,0c5.911,-0.694 10.613,-5.556 10.613,-11.667Z" style="fill:#91c0f8;fill-rule:nonzero;stroke:#fff;stroke-width:1.64px;stroke-linecap:butt;stroke-linejoin:round;"/></g><rect x="0" y="0" width="74.667" height="64" style="fill:none;"/></g></svg>