<?xml version="1.0" encoding="UTF-8" standalone="no"?><!DOCTYPE svg PUBLIC "-//W3C//DTD SVG 1.1//EN" "http://www.w3.org/Graphics/SVG/1.1/DTD/svg11.dtd"><svg width="100%" height="100%" viewBox="0 0 75 64" version="1.1" xmlns="http://www.w3.org/2000/svg" xmlns:xlink="http://www.w3.org/1999/xlink" xml:space="preserve" xmlns:serif="http://www.serif.com/" style="fill-rule:evenodd;clip-rule:evenodd;stroke-linejoin:round;"><g><g><path d="M64,26.479c0,-6.998 -6.245,-12.474 -13.84,-12.474c-1.687,-0 -3.206,0.304 -4.725,0.76c-0.507,-5.172 -5.232,-9.432 -11.14,-9.432c-6.244,0 -11.308,4.564 -11.308,10.193c0,1.217 0.338,2.434 0.675,3.499c-0.506,-0.152 -1.181,-0.152 -1.687,-0.152c-6.245,-0 -11.308,4.564 -11.308,10.193c-0,5.476 4.894,10.04 10.97,10.192l29.03,0c7.426,-0.76 13.333,-6.085 13.333,-12.779Z" style="fill:#57a0ee;fill-rule:nonzero;stroke:#fff;stroke-width:1.93px;"/></g><g><path d="M28.874,44.568l-2.345,11.985" style="fill:none;fill-rule:nonzero;stroke:#91c0f8;stroke-width:3.16px;stroke-linecap:round;stroke-linejoin:miter;stroke-dasharray:6.31,6.31;"/><path d="M36.109,42.628l-2.345,11.986" style="fill:none;fill-rule:nonzero;stroke:#91c0f8;stroke-width:3.16px;stroke-linecap:round;stroke-linejoin:miter;stroke-dasharray:6.31,6.31;"/><path d="M42.464,45.183l-2.345,11.985" style="fill:none;fill-rule:nonzero;stroke:#91c0f8;stroke-width:3.16px;stroke-linecap:round;stroke-linejoin:miter;stroke-dasharray:6.31,6.31;"/></g><rect x="0" y="0" width="74.667" height="64" style="fill:none;"/></g></svg>