<?xml version="1.0" encoding="UTF-8" standalone="no"?><!DOCTYPE svg PUBLIC "-//W3C//DTD SVG 1.1//EN" "http://www.w3.org/Graphics/SVG/1.1/DTD/svg11.dtd"><svg width="100%" height="100%" viewBox="0 0 75 64" version="1.1" xmlns="http://www.w3.org/2000/svg" xmlns:xlink="http://www.w3.org/1999/xlink" xml:space="preserve" xmlns:serif="http://www.serif.com/" style="fill-rule:evenodd;clip-rule:evenodd;stroke-linejoin:round;"><g><g><path d="M64,31.034c0,-7.402 -6.245,-13.195 -13.84,-13.195c-1.687,0 -3.206,0.322 -4.725,0.805c-0.507,-5.472 -5.232,-9.977 -11.14,-9.977c-6.244,-0 -11.308,4.827 -11.308,10.781c0,1.288 0.338,2.575 0.675,3.701c-0.506,-0.16 -1.181,-0.16 -1.687,-0.16c-6.245,-0 -11.308,4.827 -11.308,10.781c-0,5.793 4.894,10.621 10.97,10.782l29.03,-0c7.426,-0.805 13.333,-6.437 13.333,-13.518Z" style="fill:#57a0ee;fill-rule:nonzero;stroke:#fff;stroke-width:1.98px;"/></g><g><g><path d="M22.312,47.287l0,8.046" style="fill:none;fill-rule:nonzero;stroke:#57a0ee;stroke-width:1.98px;stroke-linecap:round;stroke-linejoin:miter;"/><path d="M25.296,48.466l-5.967,5.689" style="fill:none;fill-rule:nonzero;stroke:#57a0ee;stroke-width:1.61px;stroke-linecap:round;stroke-linejoin:miter;"/><path d="M26.532,51.31l-8.439,0" style="fill:none;fill-rule:nonzero;stroke:#57a0ee;stroke-width:1.65px;stroke-linecap:round;stroke-linejoin:miter;"/><path d="M25.296,54.155l-5.967,-5.689" style="fill:none;fill-rule:nonzero;stroke:#57a0ee;stroke-width:1.69px;stroke-linecap:round;stroke-linejoin:miter;"/></g></g><g><g><path d="M35.814,47.287l0,8.046" style="fill:none;fill-rule:nonzero;stroke:#57a0ee;stroke-width:1.98px;stroke-linecap:round;stroke-linejoin:miter;"/><path d="M38.798,48.466l-5.967,5.689" style="fill:none;fill-rule:nonzero;stroke:#57a0ee;stroke-width:1.61px;stroke-linecap:round;stroke-linejoin:miter;"/><path d="M40.034,51.31l-8.439,0" style="fill:none;fill-rule:nonzero;stroke:#57a0ee;stroke-width:1.65px;stroke-linecap:round;stroke-linejoin:miter;"/><path d="M38.798,54.155l-5.967,-5.689" style="fill:none;fill-rule:nonzero;stroke:#57a0ee;stroke-width:1.69px;stroke-linecap:round;stroke-linejoin:miter;"/></g></g><g><g><path d="M51.004,47.287l0,8.046" style="fill:none;fill-rule:nonzero;stroke:#57a0ee;stroke-width:1.98px;stroke-linecap:round;stroke-linejoin:miter;"/><path d="M53.988,48.466l-5.967,5.689" style="fill:none;fill-rule:nonzero;stroke:#57a0ee;stroke-width:1.61px;stroke-linecap:round;stroke-linejoin:miter;"/><path d="M55.224,51.31l-8.439,0" style="fill:none;fill-rule:nonzero;stroke:#57a0ee;stroke-width:1.65px;stroke-linecap:round;stroke-linejoin:miter;"/><path d="M53.988,54.155l-5.967,-5.689" style="fill:none;fill-rule:nonzero;stroke:#57a0ee;stroke-width:1.69px;stroke-linecap:round;stroke-linejoin:miter;"/></g></g><rect x="0" y="0" width="74.667" height="64" style="fill:none;"/></g></svg>