<?xml version="1.0" encoding="UTF-8" standalone="no"?><!DOCTYPE svg PUBLIC "-//W3C//DTD SVG 1.1//EN" "http://www.w3.org/Graphics/SVG/1.1/DTD/svg11.dtd"><svg width="100%" height="100%" viewBox="0 0 75 64" version="1.1" xmlns="http://www.w3.org/2000/svg" xmlns:xlink="http://www.w3.org/1999/xlink" xml:space="preserve" xmlns:serif="http://www.serif.com/" style="fill-rule:evenodd;clip-rule:evenodd;stroke-linejoin:round;"><g><g><g><path d="M48.675,16.851c0,-3.812 -3.747,-6.795 -8.304,-6.795c-1.012,0 -1.924,0.166 -2.835,0.415c-0.304,-2.818 -3.139,-5.138 -6.684,-5.138c-3.747,0 -6.784,2.486 -6.784,5.552c-0,0.663 0.202,1.326 0.405,1.906c-0.304,-0.083 -0.709,-0.083 -1.013,-0.083c-3.747,-0 -6.785,2.486 -6.785,5.551c0,2.983 2.937,5.469 6.582,5.552l17.418,-0c4.456,-0.414 8,-3.315 8,-6.96Z" style="fill:#91c0f8;fill-rule:nonzero;stroke:#fff;stroke-width:1.11px;"/></g><g><path d="M64,29.5c0,-6.352 -6.245,-11.324 -13.84,-11.324c-1.687,0 -3.206,0.277 -4.725,0.691c-0.507,-4.695 -5.232,-8.562 -11.14,-8.562c-6.244,-0 -11.308,4.143 -11.308,9.252c0,1.105 0.338,2.21 0.675,3.177c-0.506,-0.138 -1.181,-0.138 -1.687,-0.138c-6.245,-0 -11.308,4.142 -11.308,9.252c-0,4.972 4.894,9.115 10.97,9.253l29.03,-0c7.426,-0.691 13.333,-5.524 13.333,-11.601Z" style="fill:#57a0ee;fill-rule:nonzero;stroke:#fff;stroke-width:1.85px;"/></g><g><path d="M32.979,45.906l6.481,-16.24l12.557,0l-8.304,11.932l7.899,-0l-17.823,17.069l6.886,-12.761l-7.696,0Z" style="fill:#ffa500;fill-rule:nonzero;stroke:#fff;stroke-width:1.85px;stroke-linejoin:miter;"/></g></g><rect x="0" y="0" width="74.667" height="64" style="fill:none;"/></g></svg>