<?xml version="1.0" encoding="UTF-8" standalone="no"?><!DOCTYPE svg PUBLIC "-//W3C//DTD SVG 1.1//EN" "http://www.w3.org/Graphics/SVG/1.1/DTD/svg11.dtd"><svg width="100%" height="100%" viewBox="0 0 75 64" version="1.1" xmlns="http://www.w3.org/2000/svg" xmlns:xlink="http://www.w3.org/1999/xlink" xml:space="preserve" xmlns:serif="http://www.serif.com/" style="fill-rule:evenodd;clip-rule:evenodd;stroke-linejoin:round;"><g id="cloudy"><g><path d="M48.675,22.616c0,-4.616 -3.747,-8.229 -8.304,-8.229c-1.012,0 -1.924,0.201 -2.835,0.502c-0.304,-3.412 -3.139,-6.222 -6.684,-6.222c-3.747,-0 -6.784,3.01 -6.784,6.724c-0,0.803 0.202,1.605 0.405,2.308c-0.304,-0.1 -0.709,-0.1 -1.013,-0.1c-3.747,-0 -6.785,3.01 -6.785,6.724c0,3.612 2.937,6.623 6.582,6.724l17.418,-0c4.456,-0.502 8,-4.015 8,-8.431Z" style="fill:#91c0f8;fill-rule:nonzero;stroke:#fff;stroke-width:1.21px;"/></g><g><path d="M64,41.283c0,-7.694 -6.245,-13.715 -13.84,-13.715c-1.687,-0 -3.206,0.334 -4.725,0.836c-0.507,-5.687 -5.232,-10.371 -11.14,-10.371c-6.244,0 -11.308,5.018 -11.308,11.207c0,1.338 0.338,2.676 0.675,3.847c-0.506,-0.167 -1.181,-0.167 -1.687,-0.167c-6.245,-0 -11.308,5.018 -11.308,11.207c-0,6.021 4.894,11.039 10.97,11.206l29.03,0c7.426,-0.836 13.333,-6.69 13.333,-14.05Z" style="fill:#57a0ee;fill-rule:nonzero;stroke:#fff;stroke-width:2.02px;"/></g><rect x="0" y="0" width="74.667" height="64" style="fill:none;"/></g></svg>